<svg width="30" height="20" viewBox="0 0 30 20" fill="none" xmlns="http://www.w3.org/2000/svg">
<path d="M27.8571 0H2.14286C1.57454 0 1.02949 0.210714 0.627628 0.585786C0.225765 0.960859 0 1.46957 0 2V18C0 18.5304 0.225765 19.0391 0.627628 19.4142C1.02949 19.7893 1.57454 20 2.14286 20H27.8571C28.4255 20 28.9705 19.7893 29.3724 19.4142C29.7742 19.0391 30 18.5304 30 18V2C30 1.46957 29.7742 0.960859 29.3724 0.585786C28.9705 0.210714 28.4255 0 27.8571 0ZM25.5 2L15 8.78L4.5 2H25.5ZM2.14286 18V2.91L14.3893 10.82C14.5686 10.9361 14.7817 10.9984 15 10.9984C15.2183 10.9984 15.4314 10.9361 15.6107 10.82L27.8571 2.91V18H2.14286Z" fill="#626262"/>
</svg>
