<svg width="32" height="32" viewBox="0 0 32 32" fill="none" xmlns="http://www.w3.org/2000/svg">
<path d="M16 21V24.3333V21ZM4.75 31H27.25C28.2446 31 29.1984 30.6488 29.9016 30.0237C30.6049 29.3986 31 28.5507 31 27.6667V17.6667C31 16.7826 30.6049 15.9348 29.9016 15.3096C29.1984 14.6845 28.2446 14.3333 27.25 14.3333H4.75C3.75544 14.3333 2.80161 14.6845 2.09835 15.3096C1.39509 15.9348 1 16.7826 1 17.6667V27.6667C1 28.5507 1.39509 29.3986 2.09835 30.0237C2.80161 30.6488 3.75544 31 4.75 31ZM23.5 14.3333V7.66667C23.5 5.89856 22.7098 4.20286 21.3033 2.95262C19.8968 1.70238 17.9891 1 16 1C14.0109 1 12.1032 1.70238 10.6967 2.95262C9.29018 4.20286 8.5 5.89856 8.5 7.66667V14.3333H23.5Z" stroke="#626262" stroke-width="2" stroke-linecap="round" stroke-linejoin="round"/>
</svg>
