<svg width="30" height="30" viewBox="0 0 30 30" fill="none" xmlns="http://www.w3.org/2000/svg">
<path d="M30 15.0048C30.0016 12.5084 29.3797 10.0511 28.1908 7.85583C27.0018 5.66056 25.2835 3.79674 23.1915 2.43346C21.0996 1.07018 18.7003 0.250571 16.2113 0.0489775C13.7223 -0.152616 11.2223 0.270187 8.93815 1.27903C6.65398 2.28788 4.65789 3.85085 3.13096 5.82616C1.60402 7.80147 0.594549 10.1266 0.194113 12.5907C-0.206322 15.0548 0.0149486 17.5798 0.837854 19.9368C1.66076 22.2937 3.05926 24.408 4.9065 26.0878C4.94303 26.1311 4.98556 26.169 5.0328 26.2002C7.77576 28.6475 11.3237 30 15.0002 30C18.6767 30 22.2246 28.6474 24.9675 26.2001C25.0145 26.1689 25.0568 26.1311 25.0932 26.0879C26.6393 24.685 27.8746 22.9741 28.7197 21.0654C29.5647 19.1566 30.0009 17.0921 30 15.0048ZM1.2 15.0048C1.19841 12.7367 1.75622 10.5032 2.82403 8.50209C3.89185 6.50094 5.43674 4.79384 7.32193 3.53193C9.20712 2.27003 11.3745 1.49223 13.6321 1.26741C15.8897 1.04258 18.1679 1.37767 20.2651 2.243C22.3622 3.10832 24.2136 4.4772 25.6554 6.22844C27.0971 7.97967 28.0847 10.0592 28.5307 12.2831C28.9767 14.5069 28.8674 16.8063 28.2124 18.9778C27.5574 21.1493 26.377 23.1259 24.7757 24.7325C23.2863 22.2392 20.8967 20.4121 18.0996 19.6281C19.3996 18.9368 20.431 17.8307 21.0298 16.4859C21.6285 15.141 21.7602 13.6346 21.4038 12.2063C21.0474 10.778 20.2235 9.50988 19.0631 8.60366C17.9027 7.69743 16.4725 7.20516 15 7.20516C13.5275 7.20516 12.0973 7.69743 10.9369 8.60366C9.77648 9.50988 8.95256 10.778 8.5962 12.2063C8.23983 13.6346 8.37149 15.141 8.97022 16.4859C9.56896 17.8307 10.6004 18.9368 11.9004 19.6281C9.10331 20.4122 6.71375 22.2392 5.22435 24.7325C3.94739 23.4547 2.93473 21.9379 2.24423 20.2688C1.55372 18.5997 1.19889 16.811 1.2 15.0048ZM15 19.2035C13.932 19.2035 12.8879 18.8868 11.9999 18.2937C11.1119 17.7005 10.4198 16.8574 10.011 15.871C9.60234 14.8846 9.4954 13.7992 9.70376 12.752C9.91212 11.7048 10.4264 10.7429 11.1816 9.98798C11.9368 9.23301 12.899 8.71887 13.9465 8.51058C14.994 8.30229 16.0798 8.40919 17.0665 8.81777C18.0532 9.22636 18.8966 9.91827 19.4899 10.806C20.0833 11.6938 20.4 12.7375 20.4 13.8052C20.3984 15.2364 19.829 16.6085 18.8166 17.6206C17.8043 18.6326 16.4317 19.2019 15 19.2035ZM6.12975 25.564C7.02022 23.9969 8.31021 22.6937 9.86836 21.7871C11.4265 20.8805 13.1972 20.4029 15 20.4029C16.8028 20.4029 18.5735 20.8805 20.1316 21.7871C21.6898 22.6937 22.9798 23.9969 23.8702 25.564C21.3875 27.6542 18.2459 28.8004 15 28.8004C11.7541 28.8004 8.61255 27.6542 6.12975 25.564Z" fill="#626262"/>
</svg>
