<svg width="31" height="21" viewBox="0 0 31 21" fill="none" xmlns="http://www.w3.org/2000/svg">
<path d="M15.6794 19.6577L29.4344 4.1139C29.7114 3.79545 29.9063 3.29547 29.9768 2.72289C30.0472 2.15031 29.9875 1.55154 29.8106 1.05705C29.6337 0.562563 29.3539 0.212433 29.0323 0.0829527C28.7106 -0.0465275 28.3732 0.0551368 28.0934 0.365792L15.0098 15.151L1.93564 0.357365C1.7972 0.197981 1.64237 0.0888808 1.48008 0.0363556C1.31778 -0.0161696 1.15122 -0.0110827 0.990004 0.0513276C0.828792 0.113738 0.676111 0.232236 0.540772 0.399986C0.405432 0.567736 0.290111 0.781419 0.201455 1.02872C0.112798 1.27601 0.0525624 1.55203 0.0242196 1.84085C-0.0041232 2.12968 -1.4734e-05 2.42559 0.036314 2.71154C0.0726427 2.99748 0.140469 3.26779 0.235883 3.50688C0.331297 3.74598 0.452414 3.94912 0.592245 4.10461L14.3372 19.6573C14.5377 19.8842 14.7705 20.0048 15.0082 20.0048C15.2459 20.0049 15.4788 19.8845 15.6794 19.6577Z" fill="#A2A4A6"/>
</svg>

