<svg width="25" height="25" viewBox="0 0 25 25" fill="none" xmlns="http://www.w3.org/2000/svg">
<path d="M8.76649 9.97059C8.79722 9.96847 8.82668 9.95751 8.85132 9.93903C8.87597 9.92055 8.89474 9.89533 8.90538 9.86643L11.0582 4.01226L8.76649 9.97059ZM8.76649 9.97059L2.51649 10.2067L8.76649 9.97059ZM23.0997 12.5627L23.0996 12.5625L23.0885 12.5713L18.169 16.4569C18.0653 16.5363 17.9877 16.645 17.9464 16.769C17.9044 16.8949 17.9018 17.0307 17.9389 17.1581L19.6396 23.1556L19.6404 23.1585C19.6996 23.3625 19.6941 23.5799 19.6247 23.7807C19.5554 23.9811 19.4257 24.1552 19.2536 24.279C19.0798 24.4023 18.872 24.4686 18.6589 24.4686C18.4454 24.4686 18.2372 24.4021 18.0632 24.2784L18.0633 24.2782L18.0518 24.2705L12.8732 20.7996C12.7649 20.726 12.637 20.6866 12.5061 20.6866C12.3751 20.6866 12.2472 20.726 12.139 20.7996L6.96033 24.2705L6.95803 24.2721C6.78089 24.3923 6.57104 24.4549 6.35703 24.4516C6.14301 24.4483 5.93522 24.3791 5.76191 24.2535C5.58861 24.1278 5.45821 23.9519 5.38846 23.7495C5.3187 23.5472 5.31298 23.3282 5.37207 23.1225L5.37269 23.1203L7.06019 17.1411L7.06024 17.1411L7.06211 17.1341C7.09534 17.0095 7.09131 16.8779 7.05053 16.7555L6.57619 16.9137L7.05053 16.7555C7.00974 16.6332 6.934 16.5255 6.83265 16.4457L6.83244 16.4456L1.92967 12.5914L1.92977 12.5913L1.91936 12.5835C1.74497 12.4536 1.61561 12.2724 1.54942 12.0652C1.48323 11.8581 1.48353 11.6354 1.55028 11.4284L1.07441 11.275L1.55028 11.4284C1.61703 11.2215 1.74687 11.0406 1.92161 10.9111C2.09635 10.7817 2.30722 10.7102 2.52466 10.7066L2.52466 10.7068L2.53537 10.7063L8.78537 10.4702L8.79315 10.4699L8.80093 10.4694C8.92786 10.4606 9.04954 10.4154 9.15132 10.339C9.25311 10.2627 9.33065 10.1585 9.3746 10.0392L9.37466 10.039L11.5274 4.18483L11.5278 4.18396C11.6011 3.98343 11.7342 3.81028 11.9092 3.68795C12.0842 3.56561 12.2926 3.5 12.5061 3.5C12.7196 3.5 12.9279 3.56561 13.1029 3.68794L13.3894 3.27816L13.1029 3.68795C13.2779 3.81028 13.4111 3.98343 13.4844 4.18396L13.4851 4.18586L15.6445 10.0183L16.1137 9.84559L15.6448 10.0192L15.6447 10.0189C15.6887 10.1381 15.7662 10.242 15.8678 10.3182L16.1678 9.91819L15.8678 10.3182C15.9696 10.3945 16.0912 10.4398 16.2182 10.4486L16.2259 10.4491L16.2337 10.4494L22.4837 10.6855L22.4837 10.6856L22.4944 10.6858C22.7119 10.6894 22.9227 10.7609 23.0975 10.8903L23.3951 10.4885L23.0975 10.8903C23.2722 11.0198 23.4021 11.2006 23.4688 11.4076C23.5356 11.6146 23.5359 11.8372 23.4697 12.0444C23.4035 12.2515 23.2741 12.4328 23.0997 12.5627Z" stroke="black" stroke-opacity="0.2"/>
</svg>
