<svg width="36" height="36" viewBox="0 0 36 36" fill="none" xmlns="http://www.w3.org/2000/svg">
<path d="M34.2694 7.37257C33.7264 5.96898 32.9434 4.69707 31.9642 3.62802C30.9843 2.55579 29.829 1.7037 28.561 1.11809C27.2462 0.50844 25.8361 0.196386 24.4124 0.200044C22.4151 0.200044 20.4663 0.810568 18.7729 1.96378C18.3677 2.23965 17.9828 2.54265 17.6182 2.87278C17.2536 2.54265 16.8687 2.23965 16.4636 1.96378C14.7701 0.810568 12.8214 0.200044 10.824 0.200044C9.38579 0.200044 7.99211 0.507567 6.67541 1.11809C5.40327 1.706 4.25673 2.55169 3.27224 3.62802C2.29179 4.69586 1.50858 5.96808 0.967003 7.37257C0.40386 8.8333 0.116211 10.3845 0.116211 11.9809C0.116211 13.4868 0.391706 15.0561 0.938643 16.6525C1.39645 17.9866 2.05278 19.3705 2.89141 20.7679C4.22027 22.9794 6.04745 25.2858 8.31622 27.6239C12.0759 31.4996 15.7991 34.1768 15.9571 34.2854L16.9173 34.9728C17.3427 35.2758 17.8897 35.2758 18.3151 34.9728L19.2752 34.2854C19.4332 34.1723 23.1524 31.4996 26.9162 27.6239C29.1849 25.2858 31.0121 22.9794 32.341 20.7679C33.1796 19.3705 33.84 17.9866 34.2937 16.6525C34.8407 15.0561 35.1162 13.4868 35.1162 11.9809C35.1202 10.3845 34.8326 8.8333 34.2694 7.37257ZM17.6182 31.3955C17.6182 31.3955 3.19527 21.08 3.19527 11.9809C3.19527 7.37257 6.61059 3.63707 10.824 3.63707C13.7856 3.63707 16.3542 5.4822 17.6182 8.17755C18.8822 5.4822 21.4508 3.63707 24.4124 3.63707C28.6258 3.63707 32.0412 7.37257 32.0412 11.9809C32.0412 21.08 17.6182 31.3955 17.6182 31.3955Z" fill="black" fill-opacity="0.8"/>
<path d="M24.4124 3.63708C21.4509 3.63708 18.8823 5.48222 17.6183 8.17757C16.3542 5.48222 13.7856 3.63708 10.8241 3.63708C6.61063 3.63708 3.19531 7.37258 3.19531 11.9809C3.19531 21.08 17.6183 31.3956 17.6183 31.3956C17.6183 31.3956 32.0412 21.08 32.0412 11.9809C32.0412 7.37258 28.6259 3.63708 24.4124 3.63708Z" fill="black" fill-opacity="0.1"/>
</svg>
