<svg width="24" height="23" viewBox="0 0 24 23" fill="none" xmlns="http://www.w3.org/2000/svg">
<path d="M22.6111 10.6528C22.8692 10.4605 23.0606 10.1923 23.1586 9.8857C23.2565 9.57913 23.2561 9.24958 23.1573 8.94327C23.0585 8.63696 22.8664 8.36925 22.6077 8.17767C22.3491 7.9861 22.0371 7.88026 21.7152 7.875L15.4652 7.63889C15.4345 7.63677 15.4051 7.62581 15.3804 7.60733C15.3558 7.58884 15.337 7.56363 15.3264 7.53472L13.1666 1.70139C13.0581 1.40461 12.861 1.14835 12.6021 0.967291C12.3431 0.786234 12.0347 0.689133 11.7187 0.689133C11.4027 0.689133 11.0944 0.786234 10.8354 0.967291C10.5764 1.14835 10.3793 1.40461 10.2708 1.70139L8.11803 7.55556C8.10739 7.58446 8.08861 7.60968 8.06397 7.62816C8.03933 7.64664 8.00987 7.6576 7.97914 7.65972L1.72914 7.89584C1.40734 7.90109 1.09525 8.00693 0.836633 8.19851C0.578018 8.39009 0.385846 8.6578 0.287061 8.96411C0.188276 9.27042 0.187833 9.59996 0.285794 9.90654C0.383754 10.2131 0.575206 10.4813 0.833304 10.6736L5.73608 14.5278C5.76062 14.5471 5.77896 14.5732 5.78883 14.6028C5.79871 14.6324 5.79968 14.6643 5.79164 14.6944L4.10414 20.6736C4.01669 20.9781 4.02516 21.3021 4.1284 21.6016C4.23164 21.9011 4.42463 22.1615 4.68112 22.3474C4.9376 22.5333 5.24514 22.6357 5.56188 22.6407C5.87863 22.6456 6.1892 22.5528 6.45136 22.375L11.6319 18.9028C11.6574 18.8852 11.6877 18.8757 11.7187 18.8757C11.7497 18.8757 11.78 18.8852 11.8055 18.9028L16.9861 22.375C17.2447 22.5589 17.5542 22.6577 17.8715 22.6577C18.1888 22.6577 18.4983 22.5589 18.7569 22.375C19.0135 22.1908 19.2066 21.9317 19.3099 21.6332C19.4131 21.3348 19.4213 21.0116 19.3333 20.7083L17.6319 14.7083C17.6229 14.6782 17.6234 14.646 17.6333 14.6162C17.6433 14.5864 17.6622 14.5604 17.6875 14.5417L22.6111 10.6528Z" fill="#F7E461"/>
</svg>
