<svg width="69" height="68" viewBox="0 0 69 68" fill="none" xmlns="http://www.w3.org/2000/svg">
<path d="M7.69745e-07 8.49981V65.8735C-0.000364514 66.2425 0.129286 66.6052 0.376191 66.9259C0.623097 67.2467 0.978745 67.5143 1.40813 67.7026C1.83751 67.8909 2.32582 67.9933 2.825 67.9997C3.32418 68.0061 3.81702 67.9163 4.255 67.7392L34.5 55.542L64.745 67.7392C65.183 67.9163 65.6758 68.0061 66.175 67.9997C66.6742 67.9933 67.1625 67.8909 67.5919 67.7026C68.0213 67.5143 68.3769 67.2467 68.6238 66.9259C68.8707 66.6052 69.0004 66.2425 69 65.8735V8.49981C69 6.24552 67.7884 4.08356 65.6317 2.48954C63.4751 0.895513 60.55 0 57.5 0L11.5 0C8.45001 0 5.52494 0.895513 3.36827 2.48954C1.2116 4.08356 7.69745e-07 6.24552 7.69745e-07 8.49981Z" fill="#D94738"/>
</svg>
