<svg width="20" height="20" viewBox="0 0 20 20" fill="none" xmlns="http://www.w3.org/2000/svg">
<path d="M19.5161 4.0986C19.2058 3.29655 18.7584 2.56975 18.1988 1.95886C17.6389 1.34616 16.9787 0.85925 16.2542 0.524616C15.5029 0.176245 14.6971 -0.002072 13.8835 1.81642e-05C12.7422 1.81642e-05 11.6286 0.348889 10.6609 1.00787C10.4294 1.1655 10.2095 1.33865 10.0011 1.5273C9.79279 1.33865 9.57286 1.1655 9.34135 1.00787C8.37364 0.348889 7.26009 1.81642e-05 6.11876 1.81642e-05C5.2969 1.81642e-05 4.50052 0.175746 3.74811 0.524616C3.02118 0.860566 2.36601 1.34382 1.80345 1.95886C1.24319 2.56906 0.795642 3.29604 0.486167 4.0986C0.164371 4.93331 0 5.8197 0 6.73193C0 7.59248 0.157426 8.4892 0.469961 9.40144C0.731565 10.1638 1.10661 10.9546 1.58583 11.7531C2.34518 13.0168 3.38928 14.3347 4.68572 15.6708C6.83412 17.8855 8.96167 19.4153 9.05196 19.4773L9.60064 19.8701C9.84372 20.0433 10.1563 20.0433 10.3993 19.8701L10.948 19.4773C11.0383 19.4127 13.1635 17.8855 15.3143 15.6708C16.6107 14.3347 17.6548 13.0168 18.4141 11.7531C18.8934 10.9546 19.2707 10.1638 19.53 9.40144C19.8426 8.4892 20 7.59248 20 6.73193C20.0023 5.8197 19.8379 4.93331 19.5161 4.0986ZM10.0011 17.826C10.0011 17.826 1.75946 11.9314 1.75946 6.73193C1.75946 4.0986 3.71107 1.96403 6.11876 1.96403C7.81108 1.96403 9.27884 3.0184 10.0011 4.5586C10.7235 3.0184 12.1912 1.96403 13.8835 1.96403C16.2912 1.96403 18.2428 4.0986 18.2428 6.73193C18.2428 11.9314 10.0011 17.826 10.0011 17.826Z" fill="#D94738" fill-opacity="0.8"/>
<path d="M13.8831 1.96404C12.1908 1.96404 10.723 3.0184 10.0007 4.5586C9.27842 3.0184 7.81066 1.96404 6.11833 1.96404C3.71065 1.96404 1.75903 4.0986 1.75903 6.73193C1.75903 11.9314 10.0007 17.826 10.0007 17.826C10.0007 17.826 18.2424 11.9314 18.2424 6.73193C18.2424 4.0986 16.2908 1.96404 13.8831 1.96404Z" fill="#D94738" fill-opacity="0.8"/>
</svg>
